<svg width="300" height="188" viewBox="0 0 300 188" fill="none" xmlns="http://www.w3.org/2000/svg">
<path d="M0 162.5C0 176.305 11.193 187.5 25 187.5C38.807 187.5 50 176.305 50 162.5C50 148.695 38.807 137.5 25 137.5C11.193 137.5 0 148.695 0 162.5Z" fill="#006600"/>
<path d="M0 87.5C0 101.305 11.193 112.5 25 112.5C38.807 112.5 50 101.305 50 87.5C50 73.695 38.807 62.5 25 62.5C11.193 62.5 0 73.695 0 87.5Z" fill="#006600"/>
<path d="M100 162.5C100 176.305 111.193 187.5 125 187.5C138.807 187.5 150 176.305 150 162.5C150 148.695 138.807 137.5 125 137.5C111.193 137.5 100 148.695 100 162.5Z" fill="#006600"/>
<path d="M125 87.5C125 101.305 136.193 112.5 150 112.5C163.807 112.5 175 101.305 175 87.5C175 73.695 163.807 62.5 150 62.5C136.193 62.5 125 73.695 125 87.5Z" fill="#006600"/>
<path d="M150 162.5C150 176.305 161.193 187.5 175 187.5C188.807 187.5 200 176.305 200 162.5C200 148.695 188.807 137.5 175 137.5C161.193 137.5 150 148.695 150 162.5Z" fill="#006600"/>
<path d="M250 162.5C250 176.305 261.193 187.5 275 187.5C288.807 187.5 300 176.305 300 162.5C300 148.695 288.807 137.5 275 137.5C261.193 137.5 250 148.695 250 162.5Z" fill="#006600"/>
<path d="M250 87.5C250 101.305 261.193 112.5 275 112.5C288.807 112.5 300 101.305 300 87.5C300 73.695 288.807 62.5 275 62.5C261.193 62.5 250 73.695 250 87.5Z" fill="#006600"/>
<rect x="125" y="137.5" width="50" height="50" fill="#006600"/>
<path d="M175 87.5C175 76.0093 172.737 64.6312 168.339 54.0152C163.942 43.3992 157.497 33.7533 149.372 25.6282C141.247 17.503 131.601 11.0578 120.985 6.66054C110.369 2.26325 98.9907 -5.02273e-07 87.5 0C76.0093 5.02273e-07 64.6312 2.26326 54.0152 6.66054C43.3992 11.0578 33.7533 17.503 25.6282 25.6282C17.503 33.7533 11.0578 43.3992 6.66054 54.0152C2.26325 64.6312 -1.00455e-06 76.0093 0 87.5L50 87.5C50 82.5754 50.97 77.6991 52.8545 73.1494C54.7391 68.5997 57.5013 64.4657 60.9835 60.9835C64.4657 57.5013 68.5997 54.7391 73.1494 52.8545C77.6991 50.97 82.5754 50 87.5 50C92.4246 50 97.3009 50.97 101.851 52.8545C106.4 54.7391 110.534 57.5013 114.017 60.9835C117.499 64.4657 120.261 68.5997 122.145 73.1494C124.03 77.6991 125 82.5754 125 87.5H175Z" fill="#006600"/>
<path d="M300 87.5C300 76.0093 297.737 64.6312 293.339 54.0152C288.942 43.3992 282.497 33.7533 274.372 25.6282C266.247 17.503 256.601 11.0578 245.985 6.66054C235.369 2.26325 223.991 -5.02273e-07 212.5 0C201.009 5.02273e-07 189.631 2.26326 179.015 6.66054C168.399 11.0578 158.753 17.503 150.628 25.6282C142.503 33.7533 136.058 43.3992 131.661 54.0152C127.263 64.6312 125 76.0093 125 87.5L175 87.5C175 82.5754 175.97 77.6991 177.855 73.1494C179.739 68.5997 182.501 64.4657 185.983 60.9835C189.466 57.5013 193.6 54.7391 198.149 52.8545C202.699 50.97 207.575 50 212.5 50C217.425 50 222.301 50.97 226.851 52.8545C231.4 54.7391 235.534 57.5013 239.017 60.9835C242.499 64.4657 245.261 68.5997 247.145 73.1494C249.03 77.6991 250 82.5754 250 87.5H300Z" fill="#006600"/>
</svg>
