<svg width="98" height="99" viewBox="0 0 98 99" fill="none" xmlns="http://www.w3.org/2000/svg">
<path fill-rule="evenodd" clip-rule="evenodd" d="M41.993 13.195V6.828C41.993 5.15 42.66 3.541 43.847 2.354C45.033 1.167 46.643 0.5 48.321 0.5H49.679C51.357 0.5 52.967 1.167 54.153 2.354C55.34 3.541 56.007 5.15 56.007 6.828V13.195C57.295 14.515 58.214 16.196 58.595 18.072H93.618C94.7 18.072 95.579 18.95 95.579 20.032C95.579 21.114 94.7 21.992 93.618 21.992H84.68V36.269L92.241 51.393H93.618C95.784 51.393 97.539 53.148 97.539 55.313C97.539 63.498 90.904 70.132 82.719 70.132C74.535 70.132 67.9 63.498 67.9 55.313C67.9 53.148 69.655 51.393 71.82 51.393H73.198L80.759 36.269V21.992H58.595C58.214 23.868 57.295 25.55 56.007 26.869V80.474H69.862C72.798 80.474 75.614 81.64 77.69 83.716C79.766 85.792 80.933 88.608 80.933 91.544V94.58C80.933 96.745 79.178 98.5 77.013 98.5H20.987C18.822 98.5 17.067 96.745 17.067 94.58V91.544C17.067 88.608 18.234 85.792 20.31 83.716C22.386 81.64 25.202 80.474 28.138 80.474H41.993V26.869C40.705 25.549 39.786 23.868 39.405 21.992H17.241V36.269L24.802 51.393H26.18C28.345 51.393 30.1 53.148 30.1 55.313C30.1 63.498 23.465 70.132 15.281 70.132C7.096 70.132 0.460999 63.498 0.460999 55.313C0.460999 53.148 2.216 51.393 4.382 51.393H5.759L13.32 36.269V21.992H4.382C3.3 21.992 2.421 21.114 2.421 20.032C2.421 18.95 3.3 18.072 4.382 18.072H39.405C39.786 16.196 40.705 14.514 41.993 13.195ZM77.013 91.544C77.013 89.648 76.259 87.829 74.918 86.488C73.577 85.147 71.759 84.394 69.862 84.394H28.138C26.241 84.394 24.423 85.147 23.082 86.488C21.741 87.829 20.987 89.648 20.987 91.544V94.58H77.013V91.544ZM45.913 29.327V80.474H52.087V29.327C51.116 29.649 50.078 29.824 49 29.824C47.922 29.824 46.884 29.649 45.913 29.327ZM4.382 55.313C4.382 61.332 9.261 66.212 15.281 66.212C21.3 66.212 26.18 61.332 26.18 55.313H4.382ZM71.82 55.313C71.82 61.332 76.7 66.212 82.719 66.212C88.739 66.212 93.618 61.332 93.618 55.313H71.82ZM10.141 51.393H20.42L15.281 41.115L10.141 51.393ZM77.58 51.393H87.859L82.719 41.115L77.58 51.393ZM49 14.16C52.241 14.16 54.872 16.791 54.872 20.032C54.872 23.273 52.241 25.904 49 25.904C45.759 25.904 43.128 23.273 43.128 20.032C43.128 16.791 45.759 14.16 49 14.16ZM52.087 10.737V6.828C52.087 6.19 51.833 5.577 51.382 5.126C50.93 4.674 50.318 4.421 49.679 4.421H48.321C47.682 4.421 47.07 4.674 46.618 5.126C46.167 5.577 45.913 6.19 45.913 6.828V10.737C46.884 10.415 47.922 10.24 49 10.24C50.078 10.24 51.116 10.415 52.087 10.737Z" fill="#006600"/>
</svg>
