<svg width="74" height="90" viewBox="0 0 74 90" fill="none" xmlns="http://www.w3.org/2000/svg">
<path d="M15.461 50.289C15.461 61.488 24.5821 70.598 35.789 70.598C46.996 70.598 56.113 61.4886 56.113 50.289C56.113 45.4843 53.6677 41.9765 51.5075 38.883C50.2145 37.0275 48.9841 35.2658 48.3161 33.3557C49.5466 31.9963 50.3044 30.1955 50.3044 28.2151L50.3083 14.1131C50.3083 12.6912 49.1599 11.5311 47.7458 11.5311H45.6403C46.4801 8.78889 47.4841 3.99589 45.2848 1.48809C44.4255 0.507622 42.7536 -0.492408 39.6246 0.292792C37.3512 0.753732 35.8863 1.54279 34.7105 2.17949C33.5347 2.81621 32.7613 3.23809 31.523 3.23809C30.9996 3.23809 30.1128 2.70293 29.4605 2.31231C28.355 1.64825 27.105 0.894312 25.941 1.66387C24.816 2.40606 24.859 3.92947 25.0738 5.47637C25.0973 5.63262 25.1246 5.8084 25.152 5.98418L20.8825 7.33968C20.7731 7.37484 20.6676 7.42171 20.5739 7.4803L15.0036 10.8319L1.51958 10.8241C0.7188 10.8241 0.0742798 11.4725 0.0742798 12.2694C0.0742798 13.0702 0.72272 13.7147 1.51958 13.7147H15.4066C15.6683 13.7147 15.9261 13.6444 16.1527 13.5077L21.9222 10.0389L25.6761 8.85136C25.8089 9.53886 25.9612 10.2889 26.1292 11.0858C25.5198 11.4139 25.2151 12.1366 25.4417 12.8124C25.762 13.7772 26.6605 14.4218 27.6722 14.4218H28.0277H28.0355H43.6135H43.6174H43.6213H47.426V28.2108C47.426 29.617 46.8127 30.8788 45.8479 31.7538C45.7737 31.8045 45.7073 31.867 45.6448 31.9295C44.8323 32.5858 43.801 32.9803 42.68 32.9803L24.653 32.9842L16.1061 28.2967C15.8912 28.1796 15.6529 28.1171 15.4108 28.1171H5.16476C4.36789 28.1171 3.71945 28.7655 3.71945 29.5624C3.71945 30.3631 4.3679 31.0077 5.16476 31.0077H15.0398L22.5007 35.0975C21.8288 36.3787 20.9655 37.6248 20.0593 38.9256C17.9031 42.0233 15.461 45.5276 15.461 50.289ZM27.973 4.78899C28.9652 5.38665 30.1996 6.13279 31.5238 6.13279C33.4965 6.13279 34.8129 5.41795 36.0902 4.72659C37.2074 4.12112 38.3597 3.49609 40.2308 3.12499C40.2581 3.12109 40.2816 3.11327 40.3089 3.10546C41.6956 2.74999 42.637 2.84765 43.1175 3.39062C44.2152 4.64452 43.7347 8.33202 42.6136 11.5273L29.1756 11.5312C28.578 8.73433 28.1561 6.51173 27.9412 5.06243C27.9256 4.94915 27.9139 4.84368 27.9022 4.74602C27.9256 4.76164 27.9496 4.77337 27.973 4.78899ZM25.3285 35.879H42.6685C43.8287 35.879 44.9263 35.6095 45.9107 35.1446C46.7349 37.0938 47.9498 38.8399 49.1373 40.5391C51.2389 43.5508 53.2271 46.3946 53.2271 50.2891C53.2271 59.8907 45.4068 67.7031 35.7931 67.7031C26.1794 67.7031 18.3551 59.8906 18.3551 50.2891C18.3551 46.4375 20.3356 43.5938 22.4332 40.586C23.4723 39.0899 24.5278 37.5469 25.3285 35.879ZM39.7665 54.234C39.7665 52.8551 38.6376 51.7379 37.247 51.7379H34.3329C31.3602 51.7379 28.9423 49.3082 28.9423 46.3277C28.9423 43.3433 31.3603 40.9175 34.3329 40.9175H34.3446V39.3198C34.3446 38.5229 34.9892 37.8745 35.7899 37.8745C36.5907 37.8745 37.2352 38.5229 37.2352 39.3198V40.9175H41.2118C42.0126 40.9175 42.6571 41.5659 42.6571 42.3628C42.6571 43.1597 42.0087 43.8081 41.2118 43.8081H34.3329C32.954 43.8081 31.8368 44.937 31.8368 46.3276C31.8368 47.6909 32.9813 48.8471 34.3329 48.8471H37.247C40.2314 48.8471 42.6572 51.2651 42.6572 54.2377C42.6572 57.2221 40.2314 59.6479 37.247 59.6479H37.2353V61.2456C37.2353 62.0425 36.5869 62.6909 35.79 62.6909C34.9892 62.6909 34.3447 62.0425 34.3447 61.2456V59.6479H30.3916C29.5908 59.6479 28.9463 58.9995 28.9463 58.2026C28.9463 57.4018 29.5947 56.7573 30.3916 56.7573H37.2471C38.6377 56.7495 39.7665 55.6207 39.7665 54.234ZM73.9265 88.543C73.9265 89.3438 73.2781 89.9883 72.4812 89.9883L38.5982 89.9922C36.8834 89.9922 35.3521 89.4375 34.0474 88.3477L18.0394 74.9957C17.9886 74.9527 17.9417 74.9059 17.8988 74.859C16.2972 73.1012 16.3636 70.3824 18.0433 68.6715C19.7152 67.0035 22.3441 66.902 24.1136 68.4059L35.5786 75.3121C36.0044 74.3316 36.7778 73.5191 37.7934 73.0582C37.9809 72.9722 38.184 72.9293 38.3911 72.9293H45.6216C48.1802 70.4176 54.0474 69.9214 57.5236 72.1011L63.133 75.6323H68.8478C69.6447 75.6323 70.2931 76.2808 70.2931 77.0776C70.2931 77.8784 69.6446 78.5229 68.8478 78.5229H62.715C62.4454 78.5229 62.1759 78.4448 61.9454 78.3003L55.9884 74.5503C53.1798 72.7925 48.5509 73.6987 47.4532 75.2221C47.1798 75.5971 46.7462 75.8237 46.2813 75.8237H38.7618C38.3243 76.1245 38.0743 76.644 38.1212 77.187C38.1251 77.2261 38.129 77.2612 38.1368 77.3003C38.1525 77.355 38.1642 77.4097 38.172 77.4682C38.3048 77.9253 38.6408 78.2886 39.1056 78.4565H48.4259C49.2267 78.4565 49.8712 79.105 49.8712 79.9018C49.8712 80.7026 49.2267 81.3471 48.4259 81.3471H38.8907C38.7657 81.3471 38.6446 81.3315 38.5235 81.3003C37.1329 80.937 36.0352 79.9292 35.5274 78.648L22.5194 70.8121C22.4374 70.7613 22.3632 70.7066 22.2928 70.6441C21.6718 70.0777 20.7108 70.1011 20.1092 70.7027C19.535 71.2925 19.4842 72.2183 19.996 72.8433L35.918 86.1203C36.6992 86.7726 37.5821 87.0929 38.6133 87.0929H72.5003C73.2776 87.0968 73.9265 87.7461 73.9265 88.543Z" fill="#006600"/>
</svg>
