<svg xmlns="http://www.w3.org/2000/svg" version="1.1" viewBox="-5.0 -10.0 110.0 135.0">
 <path d="m28.461 55.289c0 11.199 9.1211 20.309 20.328 20.309 11.207 0 20.324-9.1094 20.324-20.309 0-4.8047-2.4453-8.3125-4.6055-11.406-1.293-1.8555-2.5234-3.6172-3.1914-5.5273 1.2305-1.3594 1.9883-3.1602 1.9883-5.1406l0.003906-14.102c0-1.4219-1.1484-2.582-2.5625-2.582h-2.1055c0.83984-2.7422 1.8438-7.5352-0.35547-10.043-0.85938-0.98047-2.5312-1.9805-5.6602-1.1953-2.2734 0.46094-3.7383 1.25-4.9141 1.8867-1.1758 0.63672-1.9492 1.0586-3.1875 1.0586-0.52344 0-1.4102-0.53516-2.0625-0.92578-1.1055-0.66406-2.3555-1.418-3.5195-0.64844-1.125 0.74219-1.082 2.2656-0.86719 3.8125 0.023437 0.15625 0.050781 0.33203 0.078125 0.50781l-4.2695 1.3555c-0.10937 0.035156-0.21484 0.082031-0.30859 0.14062l-5.5703 3.3516-13.484-0.007812c-0.80078 0-1.4453 0.64844-1.4453 1.4453 0 0.80078 0.64844 1.4453 1.4453 1.4453h13.887c0.26172 0 0.51953-0.070313 0.74609-0.20703l5.7695-3.4688 3.7539-1.1875c0.13281 0.6875 0.28516 1.4375 0.45312 2.2344-0.60938 0.32812-0.91406 1.0508-0.6875 1.7266 0.32031 0.96484 1.2188 1.6094 2.2305 1.6094h0.35547 0.007812 15.578 0.003907 0.003906 3.8047v13.789c0 1.4062-0.61328 2.668-1.5781 3.543-0.074218 0.050782-0.14062 0.11328-0.20312 0.17578-0.8125 0.65625-1.8438 1.0508-2.9648 1.0508l-18.027 0.003906-8.5469-4.6875c-0.21484-0.11719-0.45312-0.17969-0.69531-0.17969h-10.246c-0.79687 0-1.4453 0.64844-1.4453 1.4453 0 0.80078 0.64844 1.4453 1.4453 1.4453h9.875l7.4609 4.0898c-0.67188 1.2812-1.5352 2.5273-2.4414 3.8281-2.1562 3.0977-4.5977 6.6016-4.5977 11.363zm12.512-45.5c0.99219 0.59766 2.2266 1.3438 3.5508 1.3438 1.9727 0 3.2891-0.71484 4.5664-1.4062 1.1172-0.60547 2.2695-1.2305 4.1406-1.6016 0.027343-0.003906 0.050781-0.011719 0.078125-0.019531 1.3867-0.35547 2.3281-0.25781 2.8086 0.28516 1.0977 1.2539 0.61719 4.9414-0.50391 8.1367l-13.438 0.003906c-0.59766-2.7969-1.0195-5.0195-1.2344-6.4688-0.015625-0.11328-0.027344-0.21875-0.039062-0.31641 0.023437 0.015625 0.046875 0.027344 0.070312 0.042968zm-2.6445 31.09h17.34c1.1602 0 2.2578-0.26953 3.2422-0.73438 0.82422 1.9492 2.0391 3.6953 3.2266 5.3945 2.1016 3.0117 4.0898 5.8555 4.0898 9.75 0 9.6016-7.8203 17.414-17.434 17.414s-17.438-7.8125-17.438-17.414c0-3.8516 1.9805-6.6953 4.0781-9.7031 1.0391-1.4961 2.0938-3.0391 2.8945-4.707zm14.438 18.355c0-1.3789-1.1289-2.4961-2.5195-2.4961h-2.9141c-2.9727 0-5.3906-2.4297-5.3906-5.4102 0-2.9844 2.418-5.4102 5.3906-5.4102h0.011719v-1.5977c0-0.79687 0.64453-1.4453 1.4453-1.4453 0.80078 0 1.4453 0.64844 1.4453 1.4453v1.5977h3.9766c0.80078 0 1.4453 0.64844 1.4453 1.4453s-0.64844 1.4453-1.4453 1.4453h-6.8789c-1.3789 0-2.4961 1.1289-2.4961 2.5195 0 1.3633 1.1445 2.5195 2.4961 2.5195h2.9141c2.9844 0 5.4102 2.418 5.4102 5.3906 0 2.9844-2.4258 5.4102-5.4102 5.4102h-0.011719v1.5977c0 0.79688-0.64844 1.4453-1.4453 1.4453-0.80078 0-1.4453-0.64844-1.4453-1.4453v-1.5977h-3.9531c-0.80078 0-1.4453-0.64844-1.4453-1.4453 0-0.80078 0.64844-1.4453 1.4453-1.4453h6.8555c1.3906-0.007812 2.5195-1.1367 2.5195-2.5234zm34.16 34.309c0 0.80078-0.64844 1.4453-1.4453 1.4453l-33.883 0.003907c-1.7148 0-3.2461-0.55469-4.5508-1.6445l-16.008-13.352c-0.050781-0.042969-0.097656-0.089844-0.14062-0.13672-1.6016-1.7578-1.5352-4.4766 0.14453-6.1875 1.6719-1.668 4.3008-1.7695 6.0703-0.26562l11.465 6.9062c0.42578-0.98047 1.1992-1.793 2.2148-2.2539 0.1875-0.085938 0.39062-0.12891 0.59766-0.12891h7.2305c2.5586-2.5117 8.4258-3.0078 11.902-0.82813l5.6094 3.5312h5.7148c0.79688 0 1.4453 0.64844 1.4453 1.4453 0 0.80078-0.64844 1.4453-1.4453 1.4453h-6.1328c-0.26953 0-0.53906-0.078126-0.76953-0.22266l-5.957-3.75c-2.8086-1.7578-7.4375-0.85156-8.5352 0.67188-0.27344 0.375-0.70703 0.60156-1.1719 0.60156h-7.5195c-0.4375 0.30078-0.6875 0.82031-0.64062 1.3633 0.003906 0.039062 0.007812 0.074219 0.015625 0.11328 0.015625 0.054688 0.027343 0.10938 0.035156 0.16797 0.13281 0.45703 0.46875 0.82031 0.93359 0.98828h9.3203c0.80078 0 1.4453 0.64844 1.4453 1.4453 0 0.80078-0.64453 1.4453-1.4453 1.4453h-9.5352c-0.125 0-0.24609-0.015625-0.36719-0.046875-1.3906-0.36328-2.4883-1.3711-2.9961-2.6523l-13.008-7.8359c-0.082031-0.050781-0.15625-0.10547-0.22656-0.16797-0.62109-0.56641-1.582-0.54297-2.1836 0.058594-0.57422 0.58984-0.625 1.5156-0.11328 2.1406l15.922 13.277c0.78125 0.65234 1.6641 0.97266 2.6953 0.97266h33.887c0.77734 0.003906 1.4258 0.65234 1.4258 1.4492z"/>
<text x="0.0" y="117.5" font-size="5.0" font-weight="bold" font-family="Arbeit Regular, Helvetica, Arial-Unicode, Arial, Sans-serif" fill="#000000">Created by fatmawati</text><text x="0.0" y="122.5" font-size="5.0" font-weight="bold" font-family="Arbeit Regular, Helvetica, Arial-Unicode, Arial, Sans-serif" fill="#000000">from Noun Project</text></svg>