<svg xmlns="http://www.w3.org/2000/svg" version="1.1" viewBox="-5.0 -10.0 110.0 135.0">
 <path d="m21.125 21.48h57.062v38.32c0 0.43359 0.35156 0.78125 0.78125 0.78125s0.78125-0.34766 0.78125-0.78125v-38.406c2.9883-0.44141 5.1289-3.1211 4.8984-6.1367-0.23047-3.0117-2.75-5.3359-5.7734-5.3203h-57.75c-3.1875 0-5.7695 2.582-5.7695 5.7695s2.582 5.7734 5.7695 5.7734zm0-9.9805h57.75c2.3242 0 4.207 1.8828 4.207 4.207s-1.8828 4.2109-4.207 4.2109h-57.75c-2.3242 0-4.207-1.8867-4.207-4.2109s1.8828-4.207 4.207-4.207zm0 63.375h12.449l-4.4062 9.7812c-0.74609 1.8984 0.12891 4.0508 1.9922 4.8867 1.8633 0.83594 4.0547 0.058593 4.9766-1.7617l5.8438-12.906h3.8516v11.062c0.29297 2.0547 2.0508 3.5781 4.125 3.5781s3.832-1.5234 4.125-3.5781v-11.062h3.0312l5.8867 12.949c0.38281 0.97266 1.1445 1.7461 2.1133 2.1406 0.96875 0.39453 2.0547 0.375 3.0078-0.050782 0.95312-0.42969 1.6914-1.2266 2.0391-2.2148 0.35156-0.98438 0.28125-2.0703-0.19141-3l-4.4492-9.7812h13.355c3.1875 0 5.7695-2.5859 5.7695-5.7734s-2.582-5.7695-5.7695-5.7695h-57.062v-38.375c0-0.42969-0.35156-0.78125-0.78125-0.78125s-0.78125 0.35156-0.78125 0.78125v38.406c-2.9375 0.50391-5.0078 3.1562-4.7812 6.1289 0.22656 2.9688 2.6758 5.2773 5.6562 5.3281zm13.543 12.301c-0.375 0.8125-1.1914 1.332-2.0859 1.3242-0.77344 0.007812-1.4961-0.37891-1.918-1.0273-0.42187-0.64844-0.48437-1.4648-0.16406-2.1719l4.7383-10.418h4.9805zm17.895-1.2383c0 1.4141-1.1484 2.5625-2.5625 2.5625s-2.5625-1.1484-2.5625-2.5625v-11.062h5.125zm16.031-0.63672c0.33203 0.71094 0.27344 1.543-0.15625 2.1992-0.41406 0.65234-1.1328 1.0469-1.9062 1.043-0.89453 0.007812-1.7109-0.51172-2.082-1.3242l-5.5742-12.344h4.9805zm-47.469-20.406h57.75c2.3242 0 4.207 1.8867 4.207 4.2109s-1.8828 4.207-4.207 4.207h-57.75c-2.3242 0-4.207-1.8828-4.207-4.207s1.8828-4.2109 4.207-4.2109zm21.145-35.605v0.003907c-2.9766 0-5.8867 0.89453-8.3477 2.5664-2.4648 1.668-4.3711 4.043-5.4727 6.8086v0.074219-0.003907c-1.1641 2.9844-1.3281 6.2656-0.46875 9.3477 0.85938 3.0859 2.6992 5.8086 5.2383 7.7578l0.0625 0.074219 0.125 0.074219v-0.003907c2.5703 1.9492 5.7031 3 8.9258 3 3.2227 0 6.3594-1.0508 8.9297-3 0.03125 0.007813 0.070312 0.007813 0.10156 0l0.074219-0.074219v0.003907c3.6328-2.8125 5.7656-7.1445 5.7695-11.742 0-0.42969-0.34766-0.78125-0.78125-0.78125h-13.375v-13.32c0-0.43359-0.34766-0.78125-0.78125-0.78125zm-0.78125 1.582v12.16l-11.281-4.4375c2.0547-4.4531 6.3867-7.418 11.281-7.7188zm-12.5 13.301v0.003906c-0.003906-1.4141 0.22266-2.8203 0.66797-4.1641l11.457 4.4688-7.4375 9.7305v-0.003907c-2.9609-2.4922-4.6914-6.1562-4.7266-10.031zm26.613 0.78125 0.003907 0.003906c-0.21094 3.5938-1.8711 6.9453-4.6055 9.2812l-7.1445-9.2812zm-5.8828 10.254c-4.5 3.0508-10.406 3.0508-14.906 0l7.457-9.75zm20.176-27.375c0.43359 0 0.78125-0.34766 0.78125-0.78125 0-0.42969-0.34766-0.78125-0.78125-0.78125h-13.543 0.003907c-0.30078 0-0.57812 0.16797-0.71094 0.4375l-1.375 2.8242c-1.7695-1.2305-3.875-1.8867-6.0312-1.8867-0.39453 0.003907-0.72656 0.30469-0.76953 0.69922l-1.293 11.238c-0.023437 0.22266 0.050781 0.44531 0.19922 0.61328 0.14844 0.16406 0.35938 0.26172 0.58203 0.26172h0.082031l11.199-1.3008c0.39453-0.050781 0.6875-0.38672 0.6875-0.78125 0.003907-2.9492-1.2227-5.7656-3.3828-7.7695l1.3125-2.707zm-12.5 9.793-9.5 1.1055 1.0625-9.4922c4.4805 0.35156 8.0352 3.9102 8.3867 8.3867zm9.375 1.668c0.43359 0 0.78125 0.34766 0.78125 0.78125 0 0.42969-0.34766 0.78125-0.78125 0.78125h-4.5312c-0.42969 0-0.78125-0.35156-0.78125-0.78125 0-0.43359 0.35156-0.78125 0.78125-0.78125zm5.3867 4.8867v-0.003907c0 0.43359-0.35156 0.78125-0.78125 0.78125h-9.1367c-0.42969 0-0.78125-0.34766-0.78125-0.78125 0-0.42969 0.35156-0.78125 0.78125-0.78125h9.0938c0.21094 0 0.41016 0.078125 0.55859 0.22656 0.14453 0.14844 0.22656 0.34766 0.22266 0.55469zm0 4.3867v-0.003906c0 0.42969-0.35156 0.78125-0.78125 0.78125h-9.1367c-0.42969 0-0.78125-0.35156-0.78125-0.78125s0.35156-0.78125 0.78125-0.78125h9.0938c0.21094-0.003906 0.41016 0.078125 0.55859 0.22656 0.14453 0.14453 0.22656 0.34766 0.22266 0.55469zm0 4.3867v-0.003906c0.003906 0.20703-0.078125 0.40625-0.22656 0.55469-0.14453 0.14844-0.34766 0.22656-0.55469 0.22656h-9.1367c-0.42969 0-0.78125-0.35156-0.78125-0.78125 0-0.43359 0.35156-0.78125 0.78125-0.78125h9.0938c0.43359 0 0.78125 0.34766 0.78125 0.78125z"/>
<text x="0.0" y="117.5" font-size="5.0" font-weight="bold" font-family="Arbeit Regular, Helvetica, Arial-Unicode, Arial, Sans-serif" fill="#000000">Created by Maya Rebis</text><text x="0.0" y="122.5" font-size="5.0" font-weight="bold" font-family="Arbeit Regular, Helvetica, Arial-Unicode, Arial, Sans-serif" fill="#000000">from Noun Project</text></svg>