<svg xmlns="http://www.w3.org/2000/svg" version="1.1" viewBox="-5.0 -10.0 110.0 135.0">
 <path d="m94.445 66.668h-2.7773v-55.559h2.7773c1.5273 0 2.7773-1.25 2.7773-2.7773 0-1.5273-1.25-2.7773-2.7773-2.7773h-88.891c-1.5273 0-2.7773 1.25-2.7773 2.7773 0 1.5273 1.25 2.7773 2.7773 2.7773h2.7773v55.555h-2.7773c-1.5273 0-2.7773 1.25-2.7773 2.7773s1.25 2.7773 2.7773 2.7773h41.668v6.0547c-3.2227 1.1406-5.5547 4.1953-5.5547 7.832 0 4.582 3.75 8.332 8.332 8.332s8.332-3.75 8.332-8.332c0-3.6094-2.332-6.668-5.5547-7.832v-6.0547h41.668c1.5273 0 2.7773-1.25 2.7773-2.7773s-1.25-2.7773-2.7773-2.7773zm-44.445 22.223c-1.5273 0-2.7773-1.25-2.7773-2.7773 0-1.5273 1.25-2.7773 2.7773-2.7773s2.7773 1.25 2.7773 2.7773c0 1.5273-1.25 2.7773-2.7773 2.7773zm-36.109-22.223v-55.559h72.223v55.555zm63.887-50h-55.555c-1.5273 0-2.7773 1.25-2.7773 2.7773v16.668c0 1.5273 1.25 2.7773 2.7773 2.7773h55.555c1.5273 0 2.7773-1.25 2.7773-2.7773v-16.668c0-1.5273-1.25-2.7773-2.7773-2.7773zm-2.7773 16.664h-50v-11.109h50zm5.5547 25c0 1.5273-1.25 2.7773-2.7773 2.7773h-55.555c-1.5273 0-2.7773-1.25-2.7773-2.7773 0-1.5273 1.25-2.7773 2.7773-2.7773h55.555c1.5273 0 2.7773 1.25 2.7773 2.7773zm0-11.109c0 1.5273-1.25 2.7773-2.7773 2.7773h-55.555c-1.5273 0-2.7773-1.25-2.7773-2.7773s1.25-2.7773 2.7773-2.7773h55.555c1.5273 0 2.7773 1.25 2.7773 2.7773z"/>
<text x="0.0" y="117.5" font-size="5.0" font-weight="bold" font-family="Arbeit Regular, Helvetica, Arial-Unicode, Arial, Sans-serif" fill="#000000">Created by Humam</text><text x="0.0" y="122.5" font-size="5.0" font-weight="bold" font-family="Arbeit Regular, Helvetica, Arial-Unicode, Arial, Sans-serif" fill="#000000">from Noun Project</text></svg>