<svg xmlns="http://www.w3.org/2000/svg" xmlns:xlink="http://www.w3.org/1999/xlink" xmlns:serif="http://www.serif.com/" viewBox="0 0 100 126.25" version="1.1" xml:space="preserve" style="" x="0px" y="0px" fill-rule="evenodd" clip-rule="evenodd" stroke-linejoin="round" stroke-miterlimit="2"><path d="M42.993,14.195l0,-6.367c0,-1.678 0.667,-3.287 1.854,-4.474c1.186,-1.187 2.796,-1.854 4.474,-1.854l1.358,-0c1.678,-0 3.288,0.667 4.474,1.854c1.187,1.187 1.854,2.796 1.854,4.474l0,6.367c1.288,1.32 2.207,3.001 2.588,4.877l35.023,0c1.082,0 1.961,0.878 1.961,1.96c0,1.082 -0.879,1.96 -1.961,1.96l-8.938,0l0,14.277l7.561,15.124l1.377,-0c2.166,-0 3.921,1.755 3.921,3.92c0,8.185 -6.635,14.819 -14.82,14.819c-8.184,0 -14.819,-6.634 -14.819,-14.819c0,-2.165 1.755,-3.92 3.92,-3.92l1.378,-0l7.561,-15.124l0,-14.277l-22.164,-0c-0.381,1.876 -1.3,3.558 -2.588,4.877l0,53.605l13.855,-0c2.936,-0 5.752,1.166 7.828,3.242c2.076,2.076 3.243,4.892 3.243,7.828l0,3.036c0,2.165 -1.755,3.92 -3.92,3.92l-56.026,-0c-2.165,-0 -3.92,-1.755 -3.92,-3.92l0,-3.036c0,-2.936 1.167,-5.752 3.243,-7.828c2.076,-2.076 4.892,-3.242 7.828,-3.242l13.855,-0l0,-53.605c-1.288,-1.32 -2.207,-3.001 -2.588,-4.877l-22.164,-0l0,14.277l7.561,15.124l1.378,-0c2.165,-0 3.92,1.755 3.92,3.92c0,8.185 -6.635,14.819 -14.819,14.819c-8.185,-0 -14.82,-6.634 -14.82,-14.819c0,-2.165 1.755,-3.92 3.921,-3.92l1.377,-0l7.561,-15.124l0,-14.277l-8.938,-0c-1.082,-0 -1.961,-0.878 -1.961,-1.96c0,-1.082 0.879,-1.96 1.961,-1.96l35.023,-0c0.381,-1.876 1.3,-3.558 2.588,-4.877Zm35.02,78.349c0,-1.896 -0.754,-3.715 -2.095,-5.056c-1.341,-1.341 -3.159,-2.094 -5.056,-2.094l-41.724,0c-1.897,0 -3.715,0.753 -5.056,2.094c-1.341,1.341 -2.095,3.16 -2.095,5.056l0,3.036l56.026,0l0,-3.036Zm-31.1,-62.217l0,51.147l6.174,0l0,-51.147c-0.971,0.322 -2.009,0.497 -3.087,0.497c-1.078,0 -2.116,-0.175 -3.087,-0.497Zm-41.531,25.986c0,6.019 4.879,10.899 10.899,10.899c6.019,0 10.899,-4.88 10.899,-10.899l-21.798,0Zm67.438,0c0,6.019 4.88,10.899 10.899,10.899c6.02,0 10.899,-4.88 10.899,-10.899l-21.798,0Zm-61.679,-3.92l10.279,0l-5.139,-10.278l-5.14,10.278Zm67.439,0l10.279,0l-5.14,-10.278l-5.139,10.278Zm-28.58,-37.233c3.241,0 5.872,2.631 5.872,5.872c0,3.241 -2.631,5.872 -5.872,5.872c-3.241,0 -5.872,-2.631 -5.872,-5.872c0,-3.241 2.631,-5.872 5.872,-5.872Zm3.087,-3.423l0,-3.909c0,-0.638 -0.254,-1.251 -0.705,-1.702c-0.452,-0.452 -1.064,-0.705 -1.703,-0.705l-1.358,0c-0.639,0 -1.251,0.253 -1.703,0.705c-0.451,0.451 -0.705,1.064 -0.705,1.702l0,3.909c0.971,-0.322 2.009,-0.497 3.087,-0.497c1.078,0 2.116,0.175 3.087,0.497Z"/><text x="0" y="116" fill="#000000" font-size="5px" font-weight="bold" font-family="'Helvetica Neue', Helvetica, Arial-Unicode, Arial, Sans-serif">Created by alimasykurm</text><text x="0" y="121" fill="#000000" font-size="5px" font-weight="bold" font-family="'Helvetica Neue', Helvetica, Arial-Unicode, Arial, Sans-serif">from the Noun Project</text></svg>