<svg width="96" height="89" viewBox="0 0 96 89" fill="none" xmlns="http://www.w3.org/2000/svg">
<path d="M76.5 52.898C81.6016 49.9996 85.1016 44.4996 85.1016 38.199C85.1016 28.8982 77.5 21.301 68.2036 21.301C58.9028 21.301 51.3056 28.9026 51.3056 38.199C51.3056 43.699 53.9072 48.5 58.0048 51.597H48.4032C47.4032 51.597 46.6024 52.3978 46.6024 53.3978C46.6024 54.3978 47.4032 55.1986 48.4032 55.1986H68.2042C81.3022 55.1986 92.0012 65.8006 92.0012 78.8976V84.4992H84.302V76.1008C84.302 75.1008 83.5012 74.3 82.5012 74.3C81.5012 74.3 80.7004 75.1008 80.7004 76.1008V84.4992H60.6024C59.6024 84.4992 58.8016 85.3 58.8016 86.3C58.8016 87.3 59.6024 88.1008 60.6024 88.1008H93.8014C94.8014 88.1008 95.6022 87.3 95.6022 86.3V78.9016C95.5006 66.6986 87.5004 56.398 76.5 52.898ZM54.898 38.199C54.898 30.8006 60.898 24.801 68.296 24.801C75.694 24.801 81.694 30.801 81.694 38.199C81.694 45.5974 75.694 51.597 68.296 51.597C60.8976 51.6009 54.898 45.6009 54.898 38.199Z" fill="#006600"/>
<path d="M36 52.898C41.1016 49.9996 44.6016 44.4996 44.6016 38.199C44.6016 28.8982 37 21.301 27.7036 21.301C18.4028 21.301 10.8056 28.9026 10.8056 38.199C10.8056 44.4998 14.3056 50 19.5048 52.898C18.0048 53.398 16.6064 53.9996 15.3056 54.6988C13.704 52.8004 11.4072 51.5972 8.9072 51.5972C5.708 51.5972 3.0088 54.1988 3.0088 57.4956V62.5972C3.0088 63.7964 3.40724 64.898 4.0088 65.7964C1.9072 69.6948 0.6104 74.0972 0.6104 78.8984V86.2968C0.6104 87.2968 1.41118 88.0976 2.4112 88.0976H53.3092C54.3092 88.0976 55.11 87.2968 55.11 86.2968V78.8984C55.0006 66.6994 47.0006 56.3984 36.001 52.8984L36 52.898ZM14.398 38.199C14.398 30.8006 20.398 24.801 27.796 24.801C35.194 24.801 41.194 30.801 41.194 38.199C41.194 45.5974 35.194 51.597 27.796 51.597C20.3976 51.6009 14.398 45.6009 14.398 38.199ZM6.4996 57.5C6.4996 56.1992 7.6012 55.1016 8.898 55.1016C11.5972 55.1016 13.7964 57.3008 13.7964 60C13.7964 62.6992 11.5972 64.8984 8.898 64.8984C7.5972 64.8984 6.4996 63.7968 6.4996 62.5V57.5ZM51.3976 84.5H43.6984V76.1016C43.6984 75.1016 42.8976 74.3008 41.8976 74.3008C40.8976 74.3008 40.0968 75.1016 40.0968 76.1016V84.5H15.2998V76.1016C15.2998 75.1016 14.499 74.3008 13.499 74.3008C12.499 74.3008 11.6982 75.1016 11.6982 76.1016V84.5H3.999V78.8984C3.999 75 4.999 71.3984 6.6006 68.0974C7.29982 68.3982 7.999 68.4958 8.7998 68.4958C13.499 68.4958 17.1982 64.695 17.1982 60.0974C17.1982 59.2967 17.0966 58.5974 16.8974 57.7966C20.0966 56.0974 23.7958 55.0974 27.6984 55.0974C40.8004 55.0974 51.3974 65.7964 51.3974 78.7964L51.3976 84.5Z" fill="#006600"/>
<path d="M56.199 15.602C56.4998 15.8012 56.8006 15.8012 57.0974 15.8012C57.699 15.8012 58.2966 15.5004 58.5974 14.9028L63.5974 6.30118C64.0974 5.5004 63.7967 4.40278 62.9959 3.90278C62.1951 3.40278 61.0975 3.70356 60.5975 4.50434L55.5975 13.1059C54.9998 14.102 55.3006 15.1997 56.199 15.602Z" fill="#006600"/>
<path d="M48 13.5C49 13.5 49.8008 12.6992 49.8008 11.6992V1.6992C49.8008 0.6992 49 0 48 0C47 0 46.1992 0.80078 46.1992 1.8008V11.8008C46.1992 12.6992 47 13.5 48 13.5Z" fill="#006600"/>
<path d="M37.398 15C37.6988 15.6016 38.2964 15.8984 38.898 15.8984C39.1988 15.8984 39.4996 15.7969 39.7964 15.6992C40.5972 15.1992 40.898 14.0976 40.398 13.3008L35.398 4.69921C34.9996 3.80077 33.898 3.50002 33.1011 4C32.3003 4.5 31.9995 5.6016 32.4995 6.3984L37.398 15Z" fill="#006600"/>
</svg>
