<svg width="100" height="100" viewBox="0 0 100 100" fill="none" xmlns="http://www.w3.org/2000/svg">
<path d="M50 0.899994C22.9 0.899994 0.899994 22.9 0.899994 50C0.899994 77.1 22.9 99.1 50 99.1C77.1 99.1 99.1 77.1 99.1 50C99.1 22.9 77.1 0.899994 50 0.899994ZM50 90.8C27.5 90.8 9.19999 72.5 9.19999 50C9.19999 27.5 27.5 9.19999 50 9.19999C72.5 9.19999 90.8 27.5 90.8 50C90.8 72.5 72.5 90.8 50 90.8Z" fill="white"/>
<path d="M41.5 66.9C42.1 67.2 42.7 67.3 43.3 67.3C44 67.3 44.8 67.1 45.4 66.6L65.6 52.8C66.6 52.1 67.2 50.9 67.2 49.7C67.2 48.5 66.6 47.3 65.5 46.6L45.3 33.2C44.1 32.4 42.7 32.4 41.4 33C40.2 33.7 39.4 34.9 39.4 36.3V63.5C39.5 65 40.2 66.3 41.5 66.9Z" fill="white"/>
</svg>
