<svg width="96" height="90" viewBox="0 0 96 90" fill="none" xmlns="http://www.w3.org/2000/svg">
<path d="M92.445 61.668H89.6677V6.109H92.445C93.9723 6.109 95.2223 4.859 95.2223 3.3317C95.2223 1.8044 93.9723 0.554398 92.445 0.554398H3.554C2.0267 0.554398 0.776703 1.8044 0.776703 3.3317C0.776703 4.859 2.0267 6.109 3.554 6.109H6.3313V61.664H3.554C2.0267 61.664 0.776703 62.914 0.776703 64.4413C0.776703 65.9686 2.0267 67.2186 3.554 67.2186H45.222V73.2733C41.9993 74.4139 39.6673 77.4686 39.6673 81.1053C39.6673 85.6873 43.4173 89.4373 47.9993 89.4373C52.5813 89.4373 56.3313 85.6873 56.3313 81.1053C56.3313 77.4959 53.9993 74.4373 50.7766 73.2733V67.2186H92.4446C93.9719 67.2186 95.2219 65.9686 95.2219 64.4413C95.2219 62.914 93.9719 61.664 92.4446 61.664L92.445 61.668ZM48 83.891C46.4727 83.891 45.2227 82.641 45.2227 81.1137C45.2227 79.5864 46.4727 78.3364 48 78.3364C49.5273 78.3364 50.7773 79.5864 50.7773 81.1137C50.7773 82.641 49.5273 83.891 48 83.891ZM11.891 61.668V6.109H84.114V61.664L11.891 61.668ZM75.778 11.668H20.223C18.6957 11.668 17.4457 12.918 17.4457 14.4453V31.1133C17.4457 32.6406 18.6957 33.8906 20.223 33.8906H75.778C77.3053 33.8906 78.5553 32.6406 78.5553 31.1133V14.4453C78.5553 12.918 77.3053 11.668 75.778 11.668ZM73.0007 28.332H23.0007V17.223H73.0007V28.332ZM78.5554 53.332C78.5554 54.8593 77.3054 56.1093 75.7781 56.1093H20.2231C18.6958 56.1093 17.4458 54.8593 17.4458 53.332C17.4458 51.8047 18.6958 50.5547 20.2231 50.5547H75.7781C77.3054 50.5547 78.5554 51.8047 78.5554 53.332ZM78.5554 42.223C78.5554 43.7503 77.3054 45.0003 75.7781 45.0003H20.2231C18.6958 45.0003 17.4458 43.7503 17.4458 42.223C17.4458 40.6957 18.6958 39.4457 20.2231 39.4457H75.7781C77.3054 39.4457 78.5554 40.6957 78.5554 42.223Z" fill="#006600"/>
</svg>
