<svg width="70" height="82" viewBox="0 0 70 82" fill="none" xmlns="http://www.w3.org/2000/svg">
<path d="M6.125 12.48H63.187V50.8C63.187 51.2336 63.5386 51.5812 63.9682 51.5812C64.3979 51.5812 64.7495 51.2336 64.7495 50.8V12.394C67.7378 11.9526 69.8784 9.2729 69.6479 6.2573C69.4174 3.2456 66.8979 0.921398 63.8745 0.936998H6.1245C2.937 0.936998 0.354996 3.519 0.354996 6.7065C0.354996 9.894 2.9375 12.48 6.125 12.48ZM6.125 2.4995H63.875C66.1992 2.4995 68.082 4.3823 68.082 6.7065C68.082 9.0307 66.1992 10.9174 63.875 10.9174H6.125C3.8008 10.9174 1.918 9.0307 1.918 6.7065C1.918 4.3823 3.8008 2.4995 6.125 2.4995ZM6.125 65.8745H18.574L14.1678 75.6557C13.4217 77.5541 14.2967 79.7065 16.16 80.5424C18.0233 81.3783 20.2147 80.601 21.1366 78.7807L26.9804 65.8747H30.832V76.9367C31.125 78.9914 32.8828 80.5148 34.957 80.5148C37.0312 80.5148 38.789 78.9914 39.082 76.9367V65.8747H42.1132L47.9999 78.8237C48.3827 79.7964 49.1444 80.5698 50.1132 80.9643C51.0819 81.3588 52.1679 81.3393 53.121 80.9135C54.0741 80.4838 54.8124 79.6869 55.1601 78.6987C55.5117 77.7143 55.4413 76.6284 54.9687 75.6987L50.5195 65.9175H63.8745C67.062 65.9175 69.644 63.3316 69.644 60.1441C69.644 56.9566 67.062 54.3746 63.8745 54.3746H6.81249V15.9996C6.81249 15.5699 6.46093 15.2184 6.03124 15.2184C5.60155 15.2184 5.24999 15.5699 5.24999 15.9996V54.4056C2.31249 54.9095 0.242186 57.5618 0.468786 60.5345C0.695346 63.5033 3.14459 65.8118 6.12499 65.8626L6.125 65.8745ZM19.668 78.1755C19.293 78.988 18.4766 79.5075 17.5821 79.4997C16.8087 79.5075 16.086 79.1208 15.6641 78.4724C15.2422 77.824 15.1797 77.0076 15.5 76.3005L20.2383 65.8825H25.2188L19.668 78.1755ZM37.563 76.9372C37.563 78.3513 36.4146 79.4997 35.0005 79.4997C33.5864 79.4997 32.438 78.3513 32.438 76.9372V65.8752H37.563V76.9372ZM53.594 76.3005C53.926 77.0114 53.8674 77.8435 53.4377 78.4997C53.0237 79.152 52.3049 79.5466 51.5315 79.5427C50.637 79.5505 49.8206 79.031 49.4495 78.2185L43.8753 65.8745H48.8558L53.594 76.3005ZM6.125 55.8945H63.875C66.1992 55.8945 68.082 57.7812 68.082 60.1054C68.082 62.4296 66.1992 64.3124 63.875 64.3124H6.125C3.8008 64.3124 1.918 62.4296 1.918 60.1054C1.918 57.7812 3.8008 55.8945 6.125 55.8945ZM27.27 20.2934C24.2934 20.2934 21.3833 21.1879 18.9223 22.8598C16.4575 24.5278 14.5512 26.9028 13.4496 29.6684V29.7426V29.7387C12.2855 32.7231 12.1215 36.0043 12.9808 39.0864C13.8402 42.1723 15.68 44.895 18.2191 46.8442L18.2816 46.9184L18.4066 46.9926V46.9887C20.9769 48.9379 24.1097 49.9887 27.3324 49.9887C30.5551 49.9887 33.6918 48.9379 36.2621 46.9887C36.2934 46.9965 36.3325 46.9965 36.3637 46.9887L36.4379 46.9145V46.9184C40.0707 44.1059 42.2035 39.7739 42.2074 35.1764C42.2074 34.7467 41.8598 34.3952 41.4262 34.3952H28.0512V21.0752C28.0512 20.6416 27.7036 20.2934 27.27 20.2934ZM26.4887 21.8715V34.0315L15.2077 29.594C17.2624 25.1409 21.5944 22.176 26.4887 21.8752V21.8715ZM13.9887 35.1725V35.1764C13.9848 33.7623 14.2114 32.3561 14.6567 31.0123L26.1137 35.4811L18.6762 45.2116V45.2077C15.7153 42.7155 13.9848 39.0515 13.9496 35.1767L13.9887 35.1725ZM40.6017 35.9537L40.6057 35.9576C40.3947 39.5514 38.7346 42.9029 36.0002 45.2388L28.8557 35.9576L40.6017 35.9537ZM34.7189 46.2077C30.2189 49.2585 24.3129 49.2585 19.8129 46.2077L27.2699 36.4577L34.7189 46.2077ZM54.8949 18.8327C55.3285 18.8327 55.6762 18.4851 55.6762 18.0515C55.6762 17.6218 55.3285 17.2702 54.8949 17.2702H41.3519H41.3559C41.0551 17.2702 40.7777 17.4382 40.6449 17.7077L39.2699 20.5319C37.5004 19.3014 35.3949 18.6452 33.2387 18.6452C32.8442 18.6491 32.5122 18.9499 32.4692 19.3444L31.1762 30.5824C31.1527 30.8051 31.227 31.0278 31.3754 31.1957C31.5238 31.3598 31.7348 31.4574 31.9574 31.4574H32.0395L43.2385 30.1566C43.633 30.1059 43.926 29.7699 43.926 29.3754C43.9299 26.4262 42.7033 23.6098 40.5432 21.6059L41.8557 18.8989L54.8949 18.8327ZM42.3949 28.6257L32.8949 29.7312L33.9574 20.239C38.4379 20.5906 41.9926 24.1492 42.3441 28.6257H42.3949ZM51.7699 30.2937C52.2035 30.2937 52.5512 30.6414 52.5512 31.075C52.5512 31.5047 52.2035 31.8562 51.7699 31.8562H47.2387C46.8091 31.8562 46.4575 31.5047 46.4575 31.075C46.4575 30.6414 46.8091 30.2937 47.2387 30.2937H51.7699ZM57.1566 35.1804V35.1765C57.1566 35.6101 56.8051 35.9578 56.3754 35.9578H47.2387C46.809 35.9578 46.4574 35.6101 46.4574 35.1765C46.4574 34.7468 46.809 34.3953 47.2387 34.3953H56.3325C56.5434 34.3953 56.7427 34.4734 56.8911 34.6218C57.0356 34.7703 57.1176 34.9695 57.1137 35.1765L57.1566 35.1804ZM57.1566 39.5671V39.5632C57.1566 39.9929 56.8051 40.3445 56.3754 40.3445H47.2387C46.809 40.3445 46.4574 39.9929 46.4574 39.5632C46.4574 39.1335 46.809 38.782 47.2387 38.782H56.3325C56.5434 38.7781 56.7427 38.8601 56.8911 39.0085C57.0356 39.1531 57.1176 39.3562 57.1137 39.5632L57.1566 39.5671ZM57.1566 43.9538V43.9499C57.1605 44.157 57.0785 44.3562 56.9301 44.5046C56.7856 44.6531 56.5824 44.7312 56.3754 44.7312H47.2387C46.809 44.7312 46.4574 44.3796 46.4574 43.9499C46.4574 43.5163 46.809 43.1687 47.2387 43.1687H56.3325C56.7661 43.1687 57.1137 43.5163 57.1137 43.9499L57.1566 43.9538Z" fill="#006600"/>
</svg>
