<svg width="832" height="546" viewBox="0 0 832 546" fill="none" xmlns="http://www.w3.org/2000/svg">
<path d="M630.87 391.25C620.112 391.243 609.64 387.78 601 381.37L456.65 278.15C453.368 275.618 451.197 271.912 450.593 267.811C449.99 263.71 451.001 259.535 453.414 256.165C455.828 252.796 459.455 250.494 463.531 249.745C467.608 248.996 471.816 249.858 475.27 252.15L619.64 355.4L619.79 355.5C627.54 361.17 636.7 360.5 647.02 353.5C648.052 352.828 649.013 352.054 649.89 351.19C651.42 349.49 653.33 346.61 652.89 340.58C652.554 337.318 651.569 334.157 649.992 331.282C648.416 328.407 646.28 325.877 643.71 323.84L498.81 203.84C490.496 196.969 480.66 192.185 470.122 189.887C459.584 187.589 448.65 187.844 438.23 190.63C410.63 198.02 384.46 197.04 371.31 195.79C335.43 192.4 329.31 182.95 327.24 179.85C322.155 172.013 319.858 162.692 320.72 153.39C321.419 145.694 323.999 138.288 328.233 131.824C332.466 125.36 338.225 120.036 345 116.32L364.12 105.64H212.43C208.187 105.64 204.117 103.954 201.116 100.954C198.116 97.9531 196.43 93.8835 196.43 89.64C196.43 85.3966 198.116 81.3269 201.116 78.3263C204.117 75.3257 208.187 73.64 212.43 73.64H425.56C429.112 73.628 432.567 74.7981 435.38 76.966C438.193 79.1339 440.206 82.1763 441.099 85.6138C441.993 89.0513 441.718 92.6884 440.316 95.9521C438.915 99.2159 436.468 101.921 433.36 103.64L360.6 144.29C358.396 145.458 356.513 147.152 355.117 149.22C353.722 151.288 352.858 153.668 352.6 156.15C352.457 157.458 352.562 158.781 352.91 160.05C362.91 163.59 396.6 168.72 429.91 159.79C445.264 155.685 461.378 155.31 476.907 158.697C492.435 162.084 506.929 169.134 519.18 179.26L664.07 299.26C676.07 309.21 683.66 323.46 684.76 338.34C685.71 351.67 681.87 363.51 673.67 372.61C671.061 375.447 668.116 377.956 664.9 380.08C653.9 387.51 642.19 391.25 630.87 391.25Z" fill="#006600"/>
<path d="M135.52 330.78C132.311 330.793 129.173 329.834 126.52 328.03L88.38 302.21C86.64 301.032 85.149 299.523 83.9922 297.769C82.8354 296.015 82.0355 294.05 81.6381 291.986C81.2406 289.923 81.2535 287.802 81.6759 285.743C82.0983 283.685 82.922 281.73 84.1 279.99C85.2779 278.25 86.7871 276.759 88.5412 275.602C90.2954 274.445 92.2602 273.646 94.3236 273.248C96.3869 272.851 98.5083 272.864 100.567 273.286C102.625 273.708 104.58 274.532 106.32 275.71L144.46 301.53C147.298 303.451 149.444 306.232 150.583 309.465C151.721 312.697 151.792 316.21 150.784 319.485C149.776 322.761 147.743 325.626 144.984 327.66C142.226 329.693 138.887 330.787 135.46 330.78H135.52Z" fill="#006600"/>
<path d="M582.61 442.88C572.374 442.967 562.411 439.579 554.35 433.27C551.17 430.79 548.02 428.27 544.87 425.79C536.27 418.97 528.15 412.53 519.6 406.54L424.33 339.8C420.854 337.365 418.488 333.65 417.752 329.47C417.016 325.291 417.97 320.991 420.405 317.515C422.84 314.039 426.555 311.673 430.735 310.937C434.914 310.201 439.214 311.155 442.69 313.59L538 380.33C547.32 386.87 556.2 393.91 564.79 400.72C567.87 403.17 570.96 405.62 574.06 408.04C579.27 412.1 586.06 411.04 590.81 409.37C592.321 408.893 593.763 408.221 595.1 407.37C607.77 398.72 600.43 377.15 600.36 376.93L615.43 371.57L630.43 366.11C632.999 373.806 634.349 381.857 634.43 389.97C634.59 408.71 626.99 424.28 613.05 433.8C609.336 436.292 605.299 438.263 601.05 439.66C595.121 441.736 588.892 442.824 582.61 442.88Z" fill="#006600"/>
<path d="M532.74 493C522.502 493.086 512.539 489.695 504.48 483.38C501.3 480.9 498.15 478.38 494.99 475.9C486.4 469.08 478.28 462.64 469.74 456.65L431.52 429.9C428.044 427.465 425.678 423.75 424.942 419.57C424.206 415.391 425.16 411.091 427.595 407.615C430.03 404.139 433.745 401.773 437.925 401.037C442.104 400.301 446.404 401.255 449.88 403.69L488.1 430.46C497.42 436.99 506.3 444.03 514.88 450.84C517.97 453.29 521.06 455.74 524.17 458.16C529.37 462.22 536.17 461.16 540.91 459.5C542.419 459.026 543.858 458.353 545.19 457.5C557.91 448.82 550.57 427.37 550.49 427.16C549.042 423.171 549.238 418.77 551.034 414.926C552.831 411.081 556.081 408.108 560.07 406.66C564.059 405.212 568.46 405.408 572.304 407.204C576.149 409.001 579.122 412.251 580.57 416.24C583.144 423.935 584.494 431.986 584.57 440.1C584.73 458.84 577.14 474.41 563.19 483.93C559.476 486.422 555.439 488.393 551.19 489.79C545.259 491.87 539.025 492.955 532.74 493Z" fill="#006600"/>
<path d="M341.26 446.89C338.096 446.89 335.002 445.952 332.371 444.194C329.74 442.435 327.689 439.937 326.478 437.013C325.267 434.089 324.95 430.872 325.567 427.769C326.185 424.665 327.709 421.814 329.946 419.576C332.184 417.339 335.035 415.815 338.139 415.197C341.242 414.58 344.459 414.897 347.383 416.108C350.307 417.319 352.805 419.37 354.564 422.001C356.322 424.632 357.26 427.726 357.26 430.89C357.26 432.994 356.845 435.077 356.039 437.02C355.233 438.963 354.052 440.728 352.563 442.214C351.074 443.701 349.307 444.878 347.362 445.681C345.417 446.483 343.334 446.894 341.23 446.89H341.26Z" fill="#006600"/>
<path d="M462.9 527.82C452.656 527.906 442.686 524.515 434.62 518.2C431.62 515.82 428.62 513.44 425.56 511.05C416.82 504.12 408.56 497.57 399.87 491.47L394.12 487.47C392.354 486.285 390.842 484.761 389.672 482.985C388.502 481.209 387.697 479.218 387.306 477.128C386.914 475.038 386.944 472.89 387.392 470.811C387.84 468.733 388.697 466.764 389.915 465.02C391.133 463.277 392.686 461.794 394.483 460.658C396.281 459.521 398.287 458.755 400.384 458.403C402.481 458.051 404.628 458.12 406.698 458.608C408.768 459.095 410.72 459.99 412.44 461.24L418.23 465.24C427.71 471.9 436.73 479.04 445.44 485.96C448.44 488.3 451.35 490.64 454.32 492.96C458.48 496.21 464.13 496.66 471.1 494.28C472.623 493.81 474.076 493.137 475.42 492.28C488.07 483.65 480.73 462.2 480.65 461.98C479.903 459.998 479.556 457.887 479.631 455.77C479.705 453.653 480.199 451.572 481.085 449.648C481.97 447.723 483.228 445.994 484.787 444.56C486.346 443.125 488.174 442.015 490.165 441.293C492.157 440.57 494.271 440.251 496.387 440.352C498.503 440.454 500.578 440.974 502.491 441.884C504.404 442.793 506.117 444.074 507.532 445.651C508.946 447.228 510.033 449.07 510.73 451.07C513.304 458.765 514.654 466.816 514.73 474.93C514.89 493.67 507.3 509.23 493.35 518.75C489.634 521.24 485.597 523.215 481.35 524.62C475.417 526.692 469.184 527.773 462.9 527.82Z" fill="#006600"/>
<path d="M158.7 398.79C148.507 398.784 138.545 395.757 130.071 390.093C121.598 384.428 114.992 376.38 111.09 366.964C107.188 357.548 106.163 347.187 108.146 337.189C110.129 327.191 115.03 318.004 122.23 310.79L153.35 279.66C158.143 274.867 163.834 271.065 170.096 268.47C176.359 265.876 183.071 264.541 189.85 264.541C196.629 264.541 203.341 265.876 209.604 268.47C215.866 271.065 221.557 274.867 226.35 279.66C231.143 284.453 234.945 290.144 237.54 296.406C240.134 302.669 241.469 309.381 241.469 316.16C241.469 322.939 240.134 329.651 237.54 335.914C234.945 342.176 231.143 347.867 226.35 352.66L195.18 383.7C190.393 388.494 184.706 392.295 178.446 394.885C172.185 397.474 165.475 398.801 158.7 398.79ZM189.83 296.51C187.26 296.506 184.715 297.011 182.341 297.997C179.967 298.982 177.812 300.427 176 302.25L144.87 333.37C141.205 337.048 139.147 342.028 139.147 347.22C139.147 352.412 141.205 357.392 144.87 361.07C148.545 364.74 153.526 366.801 158.72 366.801C163.914 366.801 168.895 364.74 172.57 361.07L203.68 330C206.419 327.26 208.284 323.77 209.039 319.971C209.795 316.171 209.407 312.233 207.925 308.654C206.442 305.075 203.932 302.016 200.711 299.863C197.491 297.71 193.704 296.561 189.83 296.56V296.51Z" fill="#006600"/>
<path d="M207 458.58C200.285 458.585 193.635 457.263 187.432 454.688C181.23 452.114 175.598 448.339 170.86 443.58L166.55 439.27C156.965 429.685 151.58 416.685 151.58 403.13C151.58 389.575 156.965 376.575 166.55 366.99L227.28 306.25C236.874 296.679 249.873 291.304 263.425 291.304C276.977 291.304 289.976 296.679 299.57 306.25L303.88 310.56C313.465 320.147 318.85 333.148 318.85 346.705C318.85 360.262 313.465 373.263 303.88 382.85L243.15 443.58C238.409 448.338 232.775 452.112 226.571 454.686C220.367 457.26 213.716 458.583 207 458.58ZM263.43 323.34C260.934 323.344 258.463 323.84 256.159 324.799C253.854 325.758 251.762 327.162 250 328.93L189.27 389.66C185.701 393.247 183.698 398.1 183.698 403.16C183.698 408.22 185.701 413.073 189.27 416.66L193.58 420.97C197.164 424.544 202.019 426.55 207.08 426.55C212.141 426.55 216.996 424.544 220.58 420.97L281.31 360.24C284.886 356.657 286.894 351.802 286.894 346.74C286.894 341.678 284.886 336.823 281.31 333.24L277 328.93C275.226 327.15 273.117 325.739 270.795 324.78C268.473 323.82 265.983 323.331 263.47 323.34H263.43Z" fill="#006600"/>
<path d="M261 511.28C250.289 511.285 239.818 508.113 230.91 502.165C222.003 496.217 215.06 487.76 210.959 477.865C206.859 467.97 205.786 457.081 207.876 446.576C209.966 436.071 215.125 426.422 222.7 418.85L279.13 362.43C284.129 357.275 290.104 353.165 296.707 350.34C303.31 347.515 310.408 346.032 317.589 345.976C324.771 345.92 331.891 347.293 338.537 350.015C345.183 352.736 351.221 356.753 356.3 361.83C361.379 366.907 365.398 372.943 368.122 379.588C370.846 386.233 372.222 393.353 372.169 400.534C372.116 407.716 370.635 414.815 367.813 421.418C364.991 428.022 360.884 433.998 355.73 439L299.31 495.42C294.284 500.457 288.312 504.452 281.738 507.173C275.163 509.895 268.116 511.291 261 511.28ZM317.42 378.57C314.51 378.565 311.628 379.135 308.939 380.247C306.25 381.359 303.807 382.991 301.75 385.05L245.33 441.48C243.272 443.538 241.64 445.981 240.526 448.669C239.412 451.358 238.839 454.24 238.839 457.15C238.839 460.06 239.412 462.942 240.526 465.631C241.64 468.319 243.272 470.762 245.33 472.82C247.388 474.878 249.831 476.51 252.519 477.624C255.208 478.738 258.09 479.311 261 479.311C263.91 479.311 266.792 478.738 269.481 477.624C272.169 476.51 274.612 474.878 276.67 472.82L333.1 416.4C336.2 413.3 338.311 409.351 339.166 405.051C340.02 400.751 339.581 396.295 337.902 392.245C336.224 388.195 333.382 384.734 329.736 382.3C326.09 379.866 321.804 378.568 317.42 378.57Z" fill="#006600"/>
<path d="M334.25 546C327.145 546.004 320.109 544.606 313.546 541.887C306.982 539.167 301.019 535.178 296 530.15C285.856 519.985 280.159 506.211 280.159 491.85C280.159 477.489 285.856 463.715 296 453.55L331.18 418.37C341.393 408.473 355.09 402.991 369.312 403.107C383.533 403.223 397.138 408.928 407.189 418.991C417.239 429.053 422.929 442.665 423.028 456.886C423.127 471.108 417.629 484.798 407.72 495L372.55 530.18C367.522 535.209 361.55 539.195 354.978 541.91C348.405 544.625 341.361 546.015 334.25 546ZM369.43 434.53C366.52 434.518 363.637 435.084 360.947 436.195C358.257 437.306 355.814 438.939 353.76 441L318.58 476.18C314.431 480.34 312.101 485.975 312.101 491.85C312.101 497.725 314.431 503.36 318.58 507.52C320.638 509.578 323.081 511.21 325.769 512.324C328.458 513.438 331.34 514.011 334.25 514.011C337.16 514.011 340.042 513.438 342.731 512.324C345.419 511.21 347.862 509.578 349.92 507.52L385.1 472.34C388.199 469.241 390.31 465.292 391.165 460.993C392.02 456.695 391.581 452.239 389.904 448.19C388.227 444.14 385.386 440.679 381.742 438.244C378.098 435.809 373.813 434.51 369.43 434.51V434.53Z" fill="#006600"/>
<path d="M565.37 127.17C557.173 127.298 549.095 125.196 542 121.09C520.5 111.94 461.61 92.22 431.58 104.46C429.629 105.282 427.535 105.708 425.418 105.715C423.302 105.721 421.205 105.308 419.249 104.498C417.293 103.688 415.517 102.499 414.025 100.998C412.532 99.4973 411.352 97.7153 410.553 95.7552C409.754 93.7951 409.351 91.696 409.369 89.5793C409.387 87.4627 409.825 85.3707 410.657 83.4244C411.489 81.4782 412.699 79.7164 414.217 78.2411C415.735 76.7658 417.531 75.6064 419.5 74.83C440.8 66.15 470.5 66.57 507.74 76.09C524.109 80.2792 540.151 85.6534 555.74 92.17C556.504 92.5062 557.243 92.8972 557.95 93.34C569.52 100.72 597.18 84.99 612.23 72.04C613.823 70.6697 615.67 69.6265 617.666 68.97C619.662 68.3136 621.768 68.0567 623.864 68.2141C625.959 68.3715 628.003 68.9401 629.878 69.8874C631.754 70.8346 633.425 72.1421 634.795 73.735C636.165 75.3279 637.209 77.1752 637.865 79.1713C638.521 81.1674 638.778 83.2732 638.621 85.3686C638.463 87.4639 637.895 89.5077 636.948 91.3834C636 93.259 634.693 94.9296 633.1 96.3C623.467 104.375 612.974 111.363 601.81 117.14C587.29 124.51 575.22 127.17 565.37 127.17Z" fill="#006600"/>
<path d="M668 350C664.836 350.001 661.742 349.063 659.111 347.305C656.48 345.548 654.429 343.05 653.217 340.127C652.005 337.203 651.688 333.987 652.304 330.883C652.92 327.779 654.443 324.928 656.68 322.69L719.46 260C720.946 258.514 722.71 257.335 724.651 256.531C726.593 255.727 728.674 255.313 730.775 255.313C732.876 255.313 734.957 255.727 736.899 256.531C738.84 257.335 740.604 258.514 742.09 260C743.576 261.486 744.755 263.25 745.559 265.191C746.363 267.133 746.777 269.214 746.777 271.315C746.777 273.416 746.363 275.497 745.559 277.439C744.755 279.38 743.576 281.144 742.09 282.63L679.34 345.38C676.322 348.363 672.243 350.025 668 350Z" fill="#006600"/>
<path d="M771.83 314C766.532 313.995 761.257 313.296 756.14 311.92C748.487 309.896 741.311 306.373 735.03 301.554C728.749 296.736 723.487 290.718 719.55 283.85L607.85 90.39C599.859 76.5483 597.694 60.0992 601.831 44.6612C605.968 29.2232 616.068 16.0609 629.91 8.06998C643.752 0.0790038 660.201 -2.08612 675.639 2.05093C691.077 6.18799 704.239 16.2883 712.23 30.13L823.92 223.59C829.197 232.746 831.975 243.128 831.976 253.696C831.976 264.264 829.2 274.646 823.924 283.803C818.648 292.96 811.059 300.57 801.916 305.869C792.773 311.169 782.398 313.973 771.83 314ZM660 32C655.042 32.0104 650.174 33.3245 645.885 35.8105C641.595 38.2964 638.035 41.8668 635.561 46.1633C633.087 50.4598 631.786 55.3313 631.79 60.2892C631.793 65.247 633.1 70.1169 635.58 74.41L747.26 267.85C751.01 274.337 757.182 279.07 764.42 281.009C771.658 282.948 779.369 281.934 785.86 278.19C792.345 274.438 797.076 268.267 799.017 261.03C800.957 253.794 799.948 246.083 796.21 239.59L684.51 46.13C682.662 42.9139 680.193 40.097 677.248 37.843C674.302 35.589 670.937 33.9428 667.35 33C664.954 32.3475 662.483 32.0113 660 32Z" fill="#006600"/>
<path d="M60.17 325C49.5998 324.979 39.2209 322.179 30.0745 316.881C20.928 311.582 13.3355 303.972 8.05864 294.813C2.78174 285.654 0.00596076 275.269 0.00970838 264.699C0.013456 254.129 2.79661 243.745 8.07999 234.59L119.78 41.13C123.706 34.2186 128.961 28.1524 135.242 23.2806C141.523 18.4089 148.706 14.8279 156.377 12.744C164.047 10.66 172.055 10.1143 179.937 11.1382C187.82 12.1621 195.422 14.7354 202.306 18.7099C209.19 22.6844 215.219 27.9815 220.047 34.2962C224.875 40.6109 228.406 47.8184 230.436 55.5036C232.466 63.1887 232.956 71.1995 231.877 79.0748C230.799 86.95 228.172 94.5341 224.15 101.39L112.45 294.89C108.517 301.765 103.257 307.791 96.9753 312.616C90.694 317.442 83.5167 320.971 75.86 323C70.7398 324.349 65.4649 325.021 60.17 325ZM172 43C167.032 42.9929 162.149 44.2953 157.845 46.7759C153.54 49.2565 149.965 52.8278 147.48 57.13L35.79 250.63C32.0442 257.121 31.0303 264.835 32.9713 272.073C34.9122 279.312 39.6491 285.483 46.14 289.23C52.6307 292.974 60.3422 293.988 67.58 292.049C74.8179 290.11 80.99 285.377 84.74 278.89L196.44 85.43C198.929 81.1354 200.243 76.261 200.249 71.2973C200.256 66.3336 198.955 61.4558 196.477 57.1546C194 52.8535 190.433 49.2807 186.136 46.7959C181.839 44.3111 176.964 43.0019 172 43Z" fill="#006600"/>
</svg>
